<svg aria-hidden="true" style="position: absolute; width: 0; height: 0; overflow: hidden;" version="1.1" xmlns="http://www.w3.org/2000/svg" xmlns:xlink="http://www.w3.org/1999/xlink">
<defs>
<symbol id="icon-iconmonstr-email-4" viewBox="0 0 32 32">
<path d="M0 4v24h32v-24h-32zM28.691 6.667l-12.691 10.284-12.691-10.284h25.381zM2.667 25.333v-15.756l13.333 10.805 13.333-10.805v15.756h-26.667z"></path>
</symbol>
<symbol id="icon-person-black-18dp-1" viewBox="0 0 32 32">
<path d="M16 16c2.947 0 5.333-2.387 5.333-5.333s-2.387-5.333-5.333-5.333c-2.947 0-5.333 2.387-5.333 5.333s2.387 5.333 5.333 5.333zM16 18.667c-3.56 0-10.667 1.787-10.667 5.333v1.333c0 0.733 0.6 1.333 1.333 1.333h18.667c0.733 0 1.333-0.6 1.333-1.333v-1.333c0-3.547-7.107-5.333-10.667-5.333z"></path>
</symbol>
<symbol id="icon-phone-black-18dp-1" viewBox="0 0 32 32">
<path d="M24.882 19.773l-3.268-0.373c-0.785-0.090-1.557 0.18-2.11 0.733l-2.367 2.367c-3.641-1.853-6.626-4.825-8.478-8.478l2.38-2.38c0.553-0.553 0.823-1.325 0.733-2.11l-0.373-3.242c-0.154-1.299-1.248-2.277-2.56-2.277h-2.226c-1.454 0-2.663 1.209-2.573 2.663 0.682 10.987 9.469 19.761 20.443 20.443 1.454 0.090 2.663-1.119 2.663-2.573v-2.226c0.013-1.3-0.965-2.393-2.264-2.547z"></path>
</symbol>
<symbol id="icon-Vector" viewBox="0 0 32 32">
<path fill="#fff" style="fill: var(--color1, #fff); stroke: var(--color1, #fff)" stroke="#fff" stroke-linejoin="miter" stroke-linecap="butt" stroke-miterlimit="4" stroke-width="0.4923" d="M4.817 15.389l-0.169-0.162-2.544 2.41 8.962 8.55 18.829-17.962-2.527-2.411-16.302 15.536-6.249-5.962z"></path>
</symbol>
<symbol id="icon-iconmonstr-check-mark-18" viewBox="0 0 32 32">
<path d="M32 8.371l-14.88 16.963-9.12-8 1.759-1.987 7.121 6.248 13.153-14.928 1.967 1.704zM1.759 15.347l9.113 8.013-1.752 1.973-9.12-8 1.759-1.987zM14.129 15.637l7.895-8.971 1.976 1.713-7.895 9.008-1.976-1.751z"></path>
</symbol>
<symbol id="icon-iconmonstr-arrow-17" viewBox="0 0 32 32">
<path d="M21.333 10.667v-5.333l10.667 10.667-10.667 10.667v-5.333h-6.667v-10.667h6.667zM12 10.667h-2.667v10.667h2.667v-10.667zM6.648 10.667h-2.648v10.667h2.648v-10.667zM1.333 10.667h-1.333v10.667h1.333v-10.667z"></path>
</symbol>
<symbol id="icon-iconmonstr-arrow-70" viewBox="0 0 32 32">
<path d="M16 0c-8.836 0-16 7.164-16 16s7.164 16 16 16 16-7.164 16-16-7.164-16-16-16zM16 10.107l7.993 7.984-1.888 1.885-6.105-6.099-6.12 6.099-1.888-1.885 8.008-7.984z"></path>
</symbol>
<symbol id="icon-iconmonstr-home-1" viewBox="0 0 32 32">
<path d="M16 8.604l12 11.167v12.229h-8v-8h-8v8h-8v-12.229l12-11.167zM32 16.197l-16-14.864-16 14.844 1.815 1.953 14.185-13.157 14.185 13.177 1.815-1.953z"></path>
</symbol>
<symbol id="icon-iconmonstr-printer-5" viewBox="0 0 32 32">
<path d="M32 6.667h-5.333v-6.667h-21.333v6.667h-5.333v17.333h5.333v8h12.692c3.929 0 8.039-4.769 8.579-8h5.396v-17.333zM8 2.667h16v4h-16v-4zM19.588 24.864s1.959 4.469-2.667 4.469h-8.921v-10.667h16v3.531c0 4.792-4.412 2.667-4.412 2.667zM28.667 10.667c-0.368 0-0.667-0.299-0.667-0.667s0.299-0.667 0.667-0.667 0.667 0.299 0.667 0.667-0.299 0.667-0.667 0.667zM21.333 22.667h-10.667v-1.333h10.667v1.333zM17.333 24h-6.667v1.333h6.667v-1.333z"></path>
</symbol>
<symbol id="icon-iconmonstr-user-1" viewBox="0 0 32 32">
<path d="M27.763 24.128c-4.585-1.059-8.853-1.987-6.787-5.891 6.293-11.883 1.668-18.237-4.976-18.237-6.776 0-11.285 6.599-4.976 18.237 2.129 3.927-2.3 4.855-6.787 5.891-4.097 0.947-4.251 2.981-4.237 6.539l0.005 1.333h31.987l0.005-1.292c0.016-3.584-0.123-5.629-4.235-6.58z"></path>
</symbol>
<symbol id="icon-phone" viewBox="0 0 32 32">
<path stroke-linejoin="round" stroke-linecap="round" stroke-miterlimit="4" stroke-width="2.6667" d="M29.333 22.56v4c0 0.003 0 0.007 0 0.011 0 1.473-1.194 2.667-2.667 2.667-0.084 0-0.168-0.004-0.251-0.012l0.011 0.001c-4.327-0.482-8.236-1.943-11.607-4.155l0.1 0.062c-3.242-2.081-5.919-4.758-7.938-7.897l-0.062-0.103c-2.158-3.286-3.62-7.214-4.083-11.442l-0.010-0.118c-0.007-0.072-0.011-0.155-0.011-0.24 0-1.472 1.192-2.665 2.664-2.667h4c0.008-0 0.017-0 0.026-0 1.341 0 2.451 0.99 2.639 2.279l0.002 0.014c0.188 1.4 0.515 2.665 0.973 3.864l-0.039-0.117c0.108 0.279 0.171 0.601 0.171 0.938 0 0.731-0.294 1.394-0.771 1.875l-1.693 1.693c1.932 3.356 4.644 6.068 7.897 7.945l0.103 0.055 1.693-1.693c0.482-0.476 1.144-0.771 1.875-0.771 0.337 0 0.66 0.063 0.957 0.177l-0.018-0.006c1.082 0.418 2.347 0.745 3.658 0.924l0.089 0.010c1.304 0.189 2.294 1.299 2.294 2.641 0 0.023-0 0.046-0.001 0.070l0-0.003z"></path>
</symbol>
<symbol id="icon-close_24px" viewBox="0 0 32 32">
<path d="M31.439 3.166l-3.166-3.166-12.553 12.553-12.553-12.553-3.166 3.166 12.553 12.553-12.553 12.553 3.166 3.166 12.553-12.553 12.553 12.553 3.166-3.166-12.553-12.553 12.553-12.553z"></path>
</symbol>
<symbol id="icon-menu_24px" viewBox="0 0 48 32">
<path d="M0 5.333v-5.333h48v5.333h-48zM0 18.667h48v-5.333h-48v5.333zM0 32h48v-5.333h-48v5.333z"></path>
</symbol>
<symbol id="icon-iconmonstr-arrow-up-thin" viewBox="0 0 32 32">
<path d="M14.667 2.941l-8.313 10.037-1.020-0.86 10.028-12 9.972 12-1.019 0.861-8.315-10.040v29.179h-1.333v-29.177z"></path>
</symbol>
</defs>
</svg>
